<svg width="92" height="92" fill="none" xmlns="http://www.w3.org/2000/svg"><rect x="11" y="25" width="64" height="64" rx="7" stroke="#F8F8F8" stroke-width="6"/><g clip-path="url(#clip0)"><path d="M90.975 18.322a3.5 3.5 0 00-4.95 0L44.093 60.254 27.975 44.136a3.5 3.5 0 00-4.95 4.95l18.593 18.593a3.501 3.501 0 004.95 0l44.407-44.407a3.5 3.5 0 000-4.95z" fill="#F8F8F8"/></g><rect x="3" y="17" width="64" height="64" rx="7" stroke="#383E44" stroke-width="6"/><g clip-path="url(#clip1)"><path d="M82.975 10.322a3.5 3.5 0 00-4.95 0L36.093 52.254 19.975 36.136a3.5 3.5 0 00-4.95 4.95l18.593 18.593a3.5 3.5 0 004.95 0l44.407-44.407a3.5 3.5 0 000-4.95z" fill="#D46575"/></g><defs><clipPath id="clip0"><path fill="#fff" d="M22 8h70v70H22z"/></clipPath><clipPath id="clip1"><path fill="#fff" d="M14 0h70v70H14z"/></clipPath></defs></svg>