<svg width="120" height="120" fill="none" xmlns="http://www.w3.org/2000/svg"><circle cx="60" cy="60" r="60" fill="#F8F8F8"/><path d="M93.08 35.504H43.993c-.64 0-1.067.427-1.067 1.069V79.32c0 3.527 2.88 6.413 6.402 6.413h38.415c3.521 0 6.402-2.886 6.402-6.413V36.573c0-.535-.533-1.07-1.067-1.07z" fill="#D46575"/><path d="M87.744 35.504h-43.75c-.64 0-1.067.427-1.067 1.069V79.32h41.616c1.814 0 3.2-1.39 3.2-3.207v-40.61z" fill="#fff"/><path d="M87.744 86.588H49.329c-3.948 0-7.256-3.206-7.256-7.267V36.573c0-1.07.854-1.924 1.92-1.924H93.08c1.067 0 1.921.855 1.921 1.923v42.749c-.107 3.954-3.308 7.267-7.256 7.267zm-43.75-50.23c-.107 0-.32.108-.32.321v42.748c0 3.1 2.56 5.665 5.655 5.665h38.415c3.094 0 5.655-2.565 5.655-5.665V36.68c0-.107-.106-.32-.32-.32H43.994z" fill="#383E44"/><path d="M83.476 45.977a.842.842 0 01-.854-.855V34.435c0-5.45-4.375-9.832-9.924-9.832h-8.536c-5.443 0-9.924 4.489-9.924 9.832v10.687c0 .428-.32.855-.854.855a.842.842 0 01-.853-.855V34.435C52.53 28.13 57.652 23 64.055 23h8.536c6.296 0 11.525 5.13 11.525 11.435v10.687c.106.428-.214.855-.64.855z" fill="#383E44"/><path d="M79.207 60.084h-10.67v32.061h10.67V60.084z" fill="#D46575"/><path d="M73.872 60.084h-5.335v28.855h4.268c.64 0 1.067-.427 1.067-1.069V60.084z" fill="#fff"/><path d="M79.207 93h-10.67a.842.842 0 01-.854-.855V60.084c0-.428.32-.855.853-.855h10.671c.427 0 .854.32.854.855v32.061c-.107.428-.427.855-.854.855zm-9.923-1.603h9.07V60.939h-9.07v30.458z" fill="#383E44"/><path d="M68.537 66.496H57.866v25.65h10.67v-25.65z" fill="#D46575"/><path d="M63.201 66.496h-5.335V88.94h4.268c.64 0 1.067-.427 1.067-1.069V66.496z" fill="#fff"/><path d="M68.537 93H57.866a.842.842 0 01-.854-.855V66.496c0-.427.32-.855.854-.855h10.67c.427 0 .854.32.854.855v25.65c-.106.427-.427.854-.853.854zm-9.924-1.603h9.07V67.351h-9.07v24.046z" fill="#383E44"/><path d="M57.866 72.908h-10.67v19.237h10.67V72.908z" fill="#D46575"/><path d="M52.53 72.908h-5.335v16.03h4.268c.64 0 1.068-.427 1.068-1.068V72.908z" fill="#fff"/><path d="M57.866 93h-10.67a.842.842 0 01-.855-.855V72.908c0-.427.32-.855.854-.855h10.67c.428 0 .854.321.854.855v19.237c-.106.428-.426.855-.853.855zm-9.924-1.603h9.07V73.763h-9.07v17.634z" fill="#383E44"/><path d="M47.195 79.32h-10.67v12.825h10.67V79.321z" fill="#D46575"/><path d="M41.86 79.32h-5.336v9.619h4.269c.64 0 1.067-.428 1.067-1.069v-8.55z" fill="#fff"/><path d="M47.195 93h-10.67a.842.842 0 01-.854-.855V79.321c0-.428.32-.855.853-.855h10.671c.427 0 .854.32.854.855v12.824c-.107.428-.427.855-.854.855zm-9.924-1.603h9.07V80.176h-9.07v11.22z" fill="#383E44"/><path d="M36.524 85.733h-10.67v6.412h10.67v-6.412z" fill="#D46575"/><path d="M31.189 85.733h-5.335v3.206h4.268c.64 0 1.067-.427 1.067-1.069v-2.137z" fill="#fff"/><path d="M36.524 93h-10.67a.842.842 0 01-.854-.855v-6.412c0-.428.32-.855.854-.855h10.67c.427 0 .854.32.854.855v6.412c-.107.428-.427.855-.854.855zm-9.923-1.603h9.07v-4.81H26.6v4.81z" fill="#383E44"/><path d="M62.134 41.916l3.948 3.954C52.531 63.504 25.854 68.74 25.854 68.74s25.076 4.168 45.35-17.633l3.735 3.74V42.023H62.134v-.107z" fill="#fff"/><path d="M25.854 68.74s25.076 4.168 45.35-17.633l3.735 3.74V42.023C54.771 68.74 25.854 68.74 25.854 68.74z" fill="#D46575"/><path d="M30.762 69.81c-3.094 0-5.015-.321-5.122-.321-.427-.107-.64-.428-.64-.749 0-.427.32-.748.64-.748.214 0 25.93-5.236 39.269-22.015l-3.415-3.42a.832.832 0 01-.213-.855.803.803 0 01.746-.534h12.805c.427 0 .854.32.854.855v12.824c0 .32-.214.642-.534.748-.32.107-.64.107-.853-.213l-3.095-3.1C56.48 67.672 39.192 69.81 30.762 69.81zm33.293-27.04l2.56 2.565c.32.32.32.748.108 1.069-10.031 13.038-27.21 19.343-35.64 21.908 8.322 0 25.289-2.244 39.588-17.74a.814.814 0 01.533-.214.82.82 0 01.534.213l2.347 2.352V42.878h-10.03v-.107zm23.689 27.787a.842.842 0 01-.854-.855V58.16c0-.427.32-.855.854-.855.427 0 .853.321.853.855v11.542c-.106.428-.426.855-.853.855zm0-15.817a.842.842 0 01-.854-.855v-2.35c0-.428.32-.856.854-.856.427 0 .853.321.853.855v2.352c-.106.427-.426.854-.853.854z" fill="#383E44"/><path d="M30.122 78.252a2.136 2.136 0 002.134-2.137 2.136 2.136 0 00-2.134-2.138 2.136 2.136 0 00-2.134 2.138c0 1.18.955 2.137 2.134 2.137z" fill="#fff"/><path d="M30.122 79.107a2.985 2.985 0 01-2.988-2.992c0-1.603 1.28-2.993 2.988-2.993 1.707 0 2.988 1.283 2.988 2.993-.107 1.603-1.387 2.992-2.988 2.992zm0-4.275c-.747 0-1.387.641-1.387 1.39 0 .748.64 1.389 1.387 1.389s1.387-.642 1.387-1.39c-.107-.855-.747-1.389-1.387-1.389z" fill="#383E44"/><path d="M35.457 60.084a2.136 2.136 0 002.134-2.137c0-1.18-.955-2.138-2.134-2.138a2.136 2.136 0 00-2.134 2.138c0 1.18.956 2.137 2.134 2.137z" fill="#fff"/><path d="M35.457 60.939a2.985 2.985 0 01-2.988-2.992c0-1.604 1.281-2.993 2.988-2.993 1.708 0 2.988 1.283 2.988 2.992-.107 1.604-1.387 2.993-2.988 2.993zm0-4.275c-.747 0-1.387.641-1.387 1.39 0 .747.64 1.389 1.387 1.389s1.387-.642 1.387-1.39c-.106-.855-.64-1.389-1.387-1.389z" fill="#383E44"/><path d="M27.988 48.328a2.136 2.136 0 002.134-2.137c0-1.18-.956-2.138-2.134-2.138a2.136 2.136 0 00-2.134 2.138c0 1.18.955 2.137 2.134 2.137z" fill="#fff"/><path d="M27.988 49.183A2.985 2.985 0 0125 46.191c0-1.71 1.28-2.992 2.988-2.992 1.707 0 2.988 1.282 2.988 2.992a2.985 2.985 0 01-2.988 2.992zm0-4.275c-.747 0-1.387.642-1.387 1.39 0 .748.64 1.389 1.387 1.389s1.387-.641 1.387-1.39c-.107-.854-.747-1.389-1.387-1.389z" fill="#383E44"/><path d="M37.591 33.366a2.136 2.136 0 002.135-2.137 2.136 2.136 0 10-4.268 0c0 1.18.955 2.137 2.133 2.137z" fill="#fff"/><path d="M37.591 34.221a2.985 2.985 0 01-2.987-2.992c0-1.603 1.28-2.992 2.987-2.992 1.708 0 2.988 1.282 2.988 2.992-.107 1.603-1.387 2.992-2.988 2.992zm0-4.274c-.747 0-1.387.64-1.387 1.389 0 .748.64 1.39 1.387 1.39s1.388-.642 1.388-1.39c-.107-.855-.64-1.39-1.388-1.39z" fill="#383E44"/></svg>