<svg width="120" height="120" fill="none" xmlns="http://www.w3.org/2000/svg"><circle cx="60" cy="60" r="60" fill="#F8F8F8"/><path d="M81.32 92.146H38.574a2.142 2.142 0 01-2.138-2.134V34.524h47.023v55.488a2.142 2.142 0 01-2.137 2.134z" fill="#D46575"/><path d="M75.977 87.878H36.435V34.524h41.68v51.22a2.142 2.142 0 01-2.138 2.134z" fill="#fff"/><path d="M81.32 93H38.574c-1.604 0-2.993-1.28-2.993-2.988V34.524c0-.427.32-.853.855-.853h47.023c.427 0 .855.32.855.853v55.488C84.206 91.72 82.923 93 81.321 93zM37.184 35.378v54.74c0 .748.641 1.388 1.39 1.388H81.32c.748 0 1.389-.64 1.389-1.387V35.378H37.183z" fill="#383E44"/><path d="M83.458 34.524H36.435v-8.536c0-1.174.962-2.134 2.137-2.134h42.749c1.175 0 2.137.96 2.137 2.134v8.536z" fill="#D46575"/><path d="M78.115 29.189h-41.68v-3.201c0-1.174.962-2.134 2.137-2.134h39.543v5.335z" fill="#fff"/><path d="M83.458 35.378H36.435c-.427 0-.855-.32-.855-.854v-8.536c0-1.6 1.283-2.988 2.992-2.988h42.749c1.603 0 2.992 1.28 2.992 2.988v8.536c-.107.534-.428.854-.855.854zm-46.275-1.6h45.42v-7.79c0-.747-.641-1.387-1.39-1.387H38.467c-.748 0-1.39.64-1.39 1.387v7.79h.107z" fill="#383E44"/><path d="M67.427 30.043a.817.817 0 01-.534-.214.814.814 0 01-.214-.533c0-.214.107-.427.214-.534a.84.84 0 011.176 0c.107.107.213.32.213.534a.814.814 0 01-.213.533c-.32.107-.428.214-.642.214zm4.489-.854c0-.427.32-.854.855-.854.427 0 .855.32.855.854 0 .427-.32.854-.855.854-.534 0-.855-.32-.855-.854zm6.199.854a.817.817 0 01-.535-.214.814.814 0 01-.214-.533c0-.214.107-.427.214-.534a.84.84 0 011.176 0c.107.107.213.32.213.534a.814.814 0 01-.213.533c-.214.107-.428.214-.641.214z" fill="#383E44"/><path d="M66.359 75.073H37.824c-1.603 0-3.099.534-4.274 1.6l-7.802 6.937V45.195c0-1.174.962-2.134 2.137-2.134H66.36c1.175 0 2.137.96 2.137 2.134V72.94a2.142 2.142 0 01-2.137 2.134z" fill="#D46575"/><path d="M62.084 70.805H35.687c-1.603 0-3.1.533-4.275 1.6l-5.664 5.016V45.195c0-1.174.962-2.134 2.137-2.134h36.336v25.61a2.142 2.142 0 01-2.137 2.134z" fill="#fff"/><path d="M25.748 84.463c-.107 0-.214 0-.32-.106-.321-.107-.428-.427-.428-.747V45.195c0-1.6 1.282-2.988 2.992-2.988h38.474c1.603 0 2.992 1.28 2.992 2.988V72.94c0 1.6-1.282 2.988-2.992 2.988H37.93c-1.39 0-2.671.533-3.74 1.387l-7.802 6.936c-.32.107-.534.213-.64.213zm2.137-40.548c-.748 0-1.389.64-1.389 1.387v36.6l6.412-5.762c1.283-1.174 2.993-1.814 4.81-1.814h28.534c.748 0 1.39-.64 1.39-1.387V45.195c0-.747-.642-1.387-1.39-1.387H27.886v.107z" fill="#383E44"/><path d="M47.122 57.787H32.16c-.427 0-.855-.32-.855-.854 0-.427.321-.854.855-.854h14.962c.428 0 .855.32.855.854-.107.533-.427.854-.855.854zm0-6.403H32.16c-.427 0-.855-.32-.855-.853 0-.427.321-.854.855-.854h14.962c.428 0 .855.32.855.854-.107.533-.427.853-.855.853zm-5.343 12.805H32.16c-.427 0-.855-.32-.855-.854 0-.427.321-.853.855-.853h9.619c.427 0 .855.32.855.853-.107.534-.428.854-.855.854z" fill="#383E44"/><path d="M94.145 92.146l-7.801-6.936c-1.176-1.067-2.672-1.6-4.275-1.6H53.534a2.142 2.142 0 01-2.137-2.134V52.665c0-1.174.962-2.134 2.137-2.134h38.474c1.175 0 2.137.96 2.137 2.134v39.481z" fill="#D46575"/><path d="M53.534 50.53c-1.175 0-2.137.96-2.137 2.135V79.34h32.81c1.602 0 3.098.534 4.274 1.601l1.39 1.28v-31.69H53.533z" fill="#fff"/><path d="M94.145 93a.817.817 0 01-.534-.213l-7.802-6.936c-1.069-.96-2.351-1.388-3.74-1.388H53.534c-1.603 0-2.992-1.28-2.992-2.987V52.665c0-1.6 1.282-2.988 2.992-2.988h38.474c1.603 0 2.992 1.28 2.992 2.988v39.481c0 .32-.214.64-.427.747-.214.107-.321.107-.428.107zm-40.61-41.616c-.749 0-1.39.64-1.39 1.387v28.811c0 .747.641 1.388 1.39 1.388h28.534c1.816 0 3.42.64 4.809 1.814l6.412 5.762V52.878c0-.747-.641-1.387-1.39-1.387H53.535v-.107z" fill="#383E44"/><path d="M85.595 64.51c0-3.522-3.099-6.403-6.84-6.403-2.564 0-4.702 1.28-5.984 3.2-1.176-1.92-3.42-3.2-5.985-3.2-3.847 0-6.84 2.88-6.84 6.402 0 7.576 12.825 14.94 12.825 14.94s12.824-7.364 12.824-14.94z" fill="#fff"/><path d="M78.649 58c-1.176 0-2.245.32-3.206.747a7.654 7.654 0 013.633 6.51c0 4.8-4.168 9.496-8.229 12.91a26.152 26.152 0 001.817 1.174S85.49 71.98 85.49 64.403c.106-3.52-2.993-6.402-6.84-6.402z" fill="#D46575"/><path d="M72.771 80.195c-.107 0-.32 0-.427-.107-.535-.32-13.252-7.683-13.252-15.579 0-3.948 3.42-7.256 7.694-7.256 2.351 0 4.489.96 5.985 2.668 1.496-1.601 3.634-2.668 5.985-2.668 4.275 0 7.694 3.201 7.694 7.256 0 8.003-12.717 15.26-13.252 15.58-.213.106-.32.106-.427.106zm-5.985-21.341c-3.313 0-6.091 2.56-6.091 5.655 0 6.296 9.939 12.698 12.076 13.979 2.137-1.28 12.076-7.683 12.076-13.979 0-3.095-2.778-5.655-6.091-5.655-2.138 0-4.168 1.067-5.237 2.774-.32.427-1.069.427-1.39 0-1.175-1.707-3.205-2.774-5.343-2.774zm20.947-11.738c-.428 0-.855-.32-.855-.854V33.671c0-.427.32-.854.855-.854.427 0 .855.32.855.854v12.591c-.107.534-.428.854-.855.854zm0-16.86c-.428 0-.855-.32-.855-.854v-2.347c0-.427.32-.854.855-.854.427 0 .855.32.855.854v2.348c-.107.533-.428.853-.855.853z" fill="#383E44"/></svg>