<svg width="120" height="120" fill="none" xmlns="http://www.w3.org/2000/svg"><circle cx="60" cy="60" r="60" fill="#F8F8F8"/><path d="M76.006 94.146H26.921c-.64 0-1.067-.427-1.067-1.067V36.524h51.22V93.08a1.07 1.07 0 01-1.068 1.067z" fill="#D46575"/><path d="M63.095 87.744H25.747v-51.22h39.482V85.61c0 1.174-.854 2.134-2.134 2.134z" fill="#fff"/><path d="M76.006 95H26.921A1.913 1.913 0 0125 93.08V36.523c0-.426.32-.853.854-.853h51.22c.426 0 .853.32.853.853V93.08c-.107 1.067-.96 1.921-1.92 1.921zM26.601 37.378v55.808c0 .107.106.32.32.32h49.085c.107 0 .32-.107.32-.32V37.378H26.601z" fill="#383E44"/><path d="M76.006 25.853H26.921c-.64 0-1.067.427-1.067 1.067v9.604h51.22V26.92c0-.533-.534-1.067-1.068-1.067z" fill="#D46575"/><path d="M71.631 25.853H26.814c-.64 0-1.067.427-1.067 1.067v4.269h45.884v-5.336z" fill="#fff"/><path d="M77.073 37.378h-51.22a.842.842 0 01-.853-.854v-9.603c0-1.067.854-1.921 1.92-1.921h49.086c1.067 0 1.92.854 1.92 1.92v9.604c-.106.427-.426.854-.853.854zm-50.472-1.6H76.22V26.92c0-.107-.107-.32-.32-.32H26.813c-.107 0-.32.106-.32.32v8.856h.107z" fill="#383E44"/><path d="M71.631 32.256c-.32 0-.533-.107-.747-.32a1.153 1.153 0 01-.32-.747c0-.32.107-.534.32-.747a1.032 1.032 0 011.494 0c.213.213.32.427.32.747s-.106.534-.32.747c-.107.213-.427.32-.747.32zm-6.829-1.067a1.07 1.07 0 011.067-1.067c.534 0 1.067.534 1.067 1.067 0 .534-.534 1.067-1.067 1.067-.64 0-1.067-.427-1.067-1.067zM60 32.256c-.32 0-.533-.107-.747-.32-.213-.213-.32-.427-.32-.747s.107-.534.32-.747a1.032 1.032 0 011.494 0c.213.213.32.427.32.747s-.107.534-.32.747c-.213.213-.533.32-.747.32z" fill="#383E44"/><path d="M60 88.811c11.787 0 21.341-9.555 21.341-21.342 0-11.786-9.554-21.341-21.341-21.341-11.786 0-21.341 9.555-21.341 21.341 0 11.787 9.555 21.342 21.341 21.342z" fill="#fff"/><path d="M73.018 50.61c2.775 3.628 4.482 8.11 4.482 13.018 0 11.738-9.604 21.341-21.342 21.341-4.908 0-9.39-1.707-13.018-4.481C47.088 85.503 53.17 88.81 60 88.81c11.738 0 21.341-9.604 21.341-21.342 0-6.829-3.307-13.018-8.323-16.86z" fill="#D46575"/><path d="M60 89.665c-12.165 0-22.195-9.924-22.195-22.196 0-12.164 9.924-22.195 22.195-22.195 12.165 0 22.195 9.924 22.195 22.195C82.09 79.742 72.165 89.665 60 89.665zm0-42.683c-11.31 0-20.594 9.176-20.594 20.594 0 11.311 9.176 20.595 20.594 20.595 11.311 0 20.595-9.177 20.595-20.595C80.488 56.16 71.31 46.982 60 46.982z" fill="#383E44"/><path d="M60 78.674c6.188 0 11.204-5.017 11.204-11.205 0-6.187-5.016-11.204-11.204-11.204-6.188 0-11.204 5.017-11.204 11.204 0 6.188 5.016 11.205 11.204 11.205z" fill="#fff"/><path d="M65.762 57.973c1.067 1.707 1.6 3.734 1.6 5.869 0 6.189-5.014 11.204-11.203 11.204-2.135 0-4.162-.64-5.87-1.6 1.921 3.2 5.55 5.335 9.604 5.335 6.19 0 11.205-5.016 11.205-11.205.106-4.161-2.135-7.683-5.336-9.603z" fill="#D46575"/><path d="M60 79.527c-6.616 0-12.058-5.335-12.058-12.058 0-6.615 5.335-12.057 12.058-12.057s12.058 5.335 12.058 12.057C71.95 74.085 66.616 79.528 60 79.528zm0-22.408c-5.762 0-10.457 4.695-10.457 10.457 0 5.762 4.695 10.458 10.457 10.458 5.762 0 10.457-4.696 10.457-10.458C70.351 61.707 65.656 57.12 60 57.12z" fill="#383E44"/><path d="M52.21 68.323H38.66a.842.842 0 01-.854-.853c0-.427.32-.854.854-.854h13.55c.427 0 .854.32.854.853-.107.427-.427.854-.854.854zM60 60.592a.842.842 0 01-.854-.854V46.187c0-.427.32-.854.854-.854.427 0 .854.32.854.854v13.551c-.107.534-.427.854-.854.854zm21.341 7.731H67.79a.842.842 0 01-.854-.853c0-.427.32-.854.854-.854h13.55c.427 0 .854.32.854.853-.106.427-.427.854-.853.854zM60 89.665a.842.842 0 01-.854-.854V75.259c0-.427.32-.853.854-.853.427 0 .854.32.854.853v13.552c-.107.427-.427.854-.854.854zm0-21.342a.815.815 0 01-.533-.213.837.837 0 010-1.174l30.945-30.945a.837.837 0 011.173 0c.32.32.32.853 0 1.174L60.64 68.11c-.32.106-.533.213-.64.213z" fill="#383E44"/><path d="M85.61 41.86L73.872 53.597h8.537L94.146 41.86H85.61z" fill="#D46575"/><path d="M85.61 41.86L73.872 53.597h4.162L89.878 41.86H85.61z" fill="#fff"/><path d="M82.409 54.451h-8.537a.803.803 0 01-.747-.533c-.107-.32-.107-.64.213-.854l11.738-11.738a.815.815 0 01.534-.213h8.536c.32 0 .64.213.747.533.107.32.107.64-.213.854L82.942 54.238c-.213.106-.427.213-.533.213zm-6.616-1.6h6.295l10.138-10.138H85.93L75.793 52.851z" fill="#383E44"/><path d="M85.61 41.86v-8.537L73.872 45.061v8.536L85.61 41.86z" fill="#D46575"/><path d="M81.341 37.591l-7.469 7.47v4.268l6.83-6.829c.426-.427.64-.96.64-1.494v-3.415z" fill="#fff"/><path d="M73.872 54.451c-.107 0-.213 0-.32-.107a.802.802 0 01-.534-.746V45.06c0-.213.107-.427.214-.534L84.97 32.79a.83.83 0 01.853-.214c.32.107.534.427.534.747v8.537a.815.815 0 01-.214.533L74.406 54.131c-.214.213-.427.32-.534.32zm.747-9.07v6.296L84.756 41.54v-6.296L74.62 45.38zm-29.558-.533h-4.268a.842.842 0 01-.854-.854c0-.427.32-.854.854-.854h4.268c.427 0 .854.32.854.854-.107.427-.427.854-.854.854z" fill="#383E44"/><path d="M42.927 46.982a.842.842 0 01-.854-.854V41.86c0-.427.32-.854.854-.854.427 0 .854.32.854.854v4.268c-.107.427-.427.854-.854.854zm46.951 13.872H85.61a.842.842 0 01-.854-.854c0-.427.32-.854.854-.854h4.268c.427 0 .854.32.854.854-.107.427-.427.854-.854.854z" fill="#383E44"/><path d="M87.744 62.988a.842.842 0 01-.854-.854v-4.268c0-.427.32-.854.854-.854.427 0 .854.32.854.854v4.268c-.107.427-.427.854-.854.854zm6.402 10.671h-4.268a.842.842 0 01-.853-.854c0-.427.32-.854.853-.854h4.268c.427 0 .854.32.854.854-.107.427-.427.853-.854.853z" fill="#383E44"/><path d="M92.012 75.793a.842.842 0 01-.853-.854v-4.268c0-.427.32-.854.853-.854.427 0 .854.32.854.854v4.268c-.107.427-.427.854-.854.854zM86.677 87.53h-4.268a.842.842 0 01-.854-.853c0-.427.32-.854.854-.854h4.268c.427 0 .854.32.854.854-.107.427-.427.853-.854.853z" fill="#383E44"/><path d="M84.543 89.665a.842.842 0 01-.854-.854v-4.268c0-.427.32-.854.854-.854.427 0 .853.32.853.854v4.268c-.106.427-.426.854-.853.854zm-46.951-6.403h-4.269a.842.842 0 01-.854-.853c0-.427.32-.854.854-.854h4.269c.426 0 .853.32.853.854-.107.426-.427.853-.853.853z" fill="#383E44"/><path d="M35.457 85.396a.842.842 0 01-.853-.853v-4.269c0-.426.32-.853.853-.853.427 0 .854.32.854.853v4.269c-.107.426-.427.853-.854.853zm-5.335-13.872a.842.842 0 01-.854-.853V54.878c0-.427.32-.854.854-.854.427 0 .854.32.854.854v15.793c-.107.427-.427.853-.854.853zm0-20.061a.842.842 0 01-.854-.853v-2.348c0-.427.32-.854.854-.854.427 0 .854.32.854.854v2.348c-.107.427-.427.853-.854.853z" fill="#383E44"/></svg>