<svg width="24" height="24" fill="none" xmlns="http://www.w3.org/2000/svg"><path d="M21.992 10.674H2.008c-.21 0-.379.17-.379.379v11.758c0 .21.17.379.379.379h19.984c.21 0 .379-.17.379-.38V11.054c0-.21-.17-.379-.379-.379z" fill="#F7434C"/><path d="M21.992 10.674H2.008c-.21 0-.379.17-.379.379v1.516h20.742v-1.516c0-.21-.17-.379-.379-.379z" fill="#DB2E37"/><path d="M13.936 10.674h-3.872c-.21 0-.379.17-.379.379v11.758c0 .21.17.379.38.379h3.87c.21 0 .38-.17.38-.38V11.054c0-.21-.17-.379-.38-.379z" fill="#FFDB57"/><path d="M13.936 10.674h-3.872c-.21 0-.379.17-.379.379v1.508h4.63v-1.508c0-.21-.17-.379-.38-.379z" fill="#F5BA3D"/><path d="M21.254 3.674c-.372-.969-.958-1.914-1.569-2.53a1.156 1.156 0 00-.869-.334c-1.137.027-2.991 1.455-5.51 4.245a.379.379 0 00-.098.254v2.004c0 .21.17.379.38.379h5.828c1.299 0 1.835-.632 2.056-1.162.295-.707.217-1.721-.218-2.856z" fill="#FFDB57"/><path d="M21.47 4.334a.38.38 0 00-.049-.11c-.572-.865-1.809-.54-2.745-.117-2.72 1.232-3.844 2.928-3.89 3a.378.378 0 00.317.585h4.313c.827 0 1.44-.254 1.822-.754.454-.595.535-1.495.233-2.604z" fill="#EF9325"/><path d="M10.694 5.055C8.175 2.265 6.321.837 5.184.81a1.155 1.155 0 00-.87.333c-.61.616-1.196 1.562-1.568 2.53-.435 1.135-.513 2.15-.218 2.856.22.53.757 1.162 2.056 1.162h5.829a.38.38 0 00.379-.379V5.31a.378.378 0 00-.098-.254z" fill="#FFDB57"/><path d="M9.215 7.107c-.047-.072-1.17-1.768-3.89-3-.937-.424-2.174-.747-2.746.118a.38.38 0 00-.05.11c-.302 1.108-.221 2.009.233 2.603.382.5.995.754 1.822.754h4.313a.379.379 0 00.318-.585z" fill="#EF9325"/><path d="M13.587 4.555h-3.174a.38.38 0 00-.38.379v2.379c0 .21.17.379.38.379h3.174c.21 0 .38-.17.38-.38V4.935a.38.38 0 00-.38-.38z" fill="#F5BA3D"/><path d="M23.621 6.935H.38c-.21 0-.379.17-.379.379v3.74c0 .209.17.378.379.378h23.24c.21 0 .379-.17.379-.379V7.314c0-.21-.17-.379-.379-.379z" fill="#F7434C"/><path d="M14.91 6.935H9.09v4.497h5.82V6.935z" fill="#FFDB57"/></svg>