<svg width="128" height="128" fill="none" xmlns="http://www.w3.org/2000/svg"><g filter="url(#filter0_d)"><rect x="4" width="120" height="120" rx="25" fill="#4B729F"/><path d="M93.022 63.77c-1.423-1.797-1.016-2.597 0-4.203.018-.018 11.762-16.247 12.972-21.75l.008-.004c.601-2.006 0-3.48-2.908-3.48h-9.621c-2.45 0-3.579 1.265-4.184 2.68 0 0-4.899 11.727-11.829 19.328-2.236 2.196-3.27 2.9-4.491 2.9-.602 0-1.537-.704-1.537-2.71V37.813c0-2.405-.685-3.48-2.713-3.48H53.59c-1.536 0-2.449 1.122-2.449 2.167 0 2.281 3.465 2.805 3.824 9.222v13.922c0 3.051-.553 3.612-1.782 3.612-3.27 0-11.209-11.774-15.913-25.249-.95-2.614-1.877-3.67-4.345-3.67H23.3c-2.746 0-3.3 1.265-3.3 2.68 0 2.501 3.27 14.935 15.21 31.361 7.956 11.213 19.161 17.289 29.355 17.289 6.127 0 6.875-1.35 6.875-3.67 0-10.715-.554-11.727 2.515-11.727 1.423 0 3.872.704 9.592 6.113 6.538 6.413 7.612 9.284 11.271 9.284h9.622c2.742 0 4.132-1.35 3.333-4.012-1.83-5.599-14.194-17.116-14.751-17.886z" fill="#fff"/></g><defs><filter id="filter0_d" x="0" y="0" width="128" height="128" filterUnits="userSpaceOnUse" color-interpolation-filters="sRGB"><feFlood flood-opacity="0" result="BackgroundImageFix"/><feColorMatrix in="SourceAlpha" values="0 0 0 0 0 0 0 0 0 0 0 0 0 0 0 0 0 0 127 0"/><feOffset dy="4"/><feGaussianBlur stdDeviation="2"/><feColorMatrix values="0 0 0 0 0 0 0 0 0 0 0 0 0 0 0 0 0 0 0.25 0"/><feBlend in2="BackgroundImageFix" result="effect1_dropShadow"/><feBlend in="SourceGraphic" in2="effect1_dropShadow" result="shape"/></filter></defs></svg>