<svg width="128" height="128" fill="none" xmlns="http://www.w3.org/2000/svg"><g filter="url(#filter0_d)"><rect x="4" width="120" height="120" rx="25" fill="#039BE5"/><path d="M27.725 53.69l70.947-27.355c3.293-1.19 6.169.803 5.102 5.782l.006-.006L91.7 89.022c-.895 4.035-3.293 5.016-6.647 3.115L66.657 78.58l-8.873 8.548c-.981.981-1.809 1.81-3.71 1.81l1.306-18.722 34.094-30.8c1.484-1.307-.331-2.043-2.287-.743L45.054 65.2l-18.163-5.666c-3.943-1.25-4.029-3.943.834-5.843z" fill="#fff"/></g><defs><filter id="filter0_d" x="0" y="0" width="128" height="128" filterUnits="userSpaceOnUse" color-interpolation-filters="sRGB"><feFlood flood-opacity="0" result="BackgroundImageFix"/><feColorMatrix in="SourceAlpha" values="0 0 0 0 0 0 0 0 0 0 0 0 0 0 0 0 0 0 127 0"/><feOffset dy="4"/><feGaussianBlur stdDeviation="2"/><feColorMatrix values="0 0 0 0 0 0 0 0 0 0 0 0 0 0 0 0 0 0 0.25 0"/><feBlend in2="BackgroundImageFix" result="effect1_dropShadow"/><feBlend in="SourceGraphic" in2="effect1_dropShadow" result="shape"/></filter></defs></svg>