<svg width="128" height="128" fill="none" xmlns="http://www.w3.org/2000/svg"><g filter="url(#filter0_d)"><g clip-path="url(#clip0)"><path d="M11.5 8.165C2.07 17.96 4 28.365 4 59.975c0 26.25-4.58 52.565 19.39 58.76 7.485 1.925 73.805 1.925 81.28-.01 9.98-2.575 18.1-10.67 19.21-24.785.155-1.97.155-65.925-.005-67.935-1.18-15.035-10.435-23.7-22.63-25.455C98.45.145 97.89.025 83.55 0 32.685.025 21.535-2.24 11.5 8.165z" fill="url(#paint0_linear)"/><path d="M63.99 15.695c-18.155 0-35.395-1.615-41.98 15.285-2.72 6.98-2.325 16.045-2.325 29.025 0 11.39-.365 22.095 2.325 29.02 6.57 16.91 23.95 15.29 41.97 15.29 17.385 0 35.31 1.81 41.975-15.29 2.725-7.05 2.325-15.98 2.325-29.02 0-17.31.955-28.485-7.44-36.875-8.5-8.5-19.995-7.435-36.87-7.435h.02zm-3.97 7.985c37.87-.06 42.69-4.27 40.03 54.215C99.105 98.58 83.355 96.31 63.995 96.31c-35.3 0-36.315-1.01-36.315-36.325 0-35.725 2.8-36.285 32.34-36.315v.01zm27.62 7.355a5.316 5.316 0 10.001 10.631 5.316 5.316 0 00-.001-10.631zM63.99 37.25c-12.565 0-22.75 10.19-22.75 22.755s10.185 22.75 22.75 22.75 22.745-10.185 22.745-22.75S76.555 37.25 63.99 37.25zm0 7.985c19.525 0 19.55 29.54 0 29.54-19.52 0-19.55-29.54 0-29.54z" fill="#fff"/></g></g><defs><linearGradient id="paint0_linear" x1="11.73" y1="112.335" x2="123.257" y2="15.81" gradientUnits="userSpaceOnUse"><stop stop-color="#FD5"/><stop offset=".5" stop-color="#FF543E"/><stop offset="1" stop-color="#C837AB"/></linearGradient><clipPath id="clip0"><path fill="#fff" d="M4 0h120v120H4z"/></clipPath><filter id="filter0_d" x="0" y="0" width="128" height="128" filterUnits="userSpaceOnUse" color-interpolation-filters="sRGB"><feFlood flood-opacity="0" result="BackgroundImageFix"/><feColorMatrix in="SourceAlpha" values="0 0 0 0 0 0 0 0 0 0 0 0 0 0 0 0 0 0 127 0"/><feOffset dy="4"/><feGaussianBlur stdDeviation="2"/><feColorMatrix values="0 0 0 0 0 0 0 0 0 0 0 0 0 0 0 0 0 0 0.25 0"/><feBlend in2="BackgroundImageFix" result="effect1_dropShadow"/><feBlend in="SourceGraphic" in2="effect1_dropShadow" result="shape"/></filter></defs></svg>